<svg width="204" height="57" viewBox="0 0 204 57" fill="none" xmlns="http://www.w3.org/2000/svg">
<g clip-path="url(#clip0_18_62)">
<rect width="204" height="57" fill="#1D1D1D"/>
<path d="M28.7108 34.0074C23.43 33.7202 18.1151 33.8723 12.7831 33.7709C11.8076 33.7684 10.8346 33.6723 9.87787 33.4837C9.23494 33.371 8.60099 33.2129 7.98091 33.0107C6.82916 32.616 5.72344 32.1006 4.68261 31.4733C3.27217 30.6316 1.99878 29.5835 0.90577 28.3649C0.785261 29.4905 0.819764 30.6272 1.00832 31.7436C2.27296 38.3154 9.55317 45.2588 17.2777 45.2588C23.0541 45.2588 28.8133 45.2588 34.5725 45.2588C35.1381 45.1837 35.7134 45.2297 36.2595 45.3936C36.8055 45.5575 37.3095 45.8355 37.7374 46.2088C38.1652 46.5821 38.5069 47.0419 38.7393 47.5571C38.9717 48.0723 39.0893 48.6309 39.0842 49.195C39.0842 51.5771 37.3752 52.9793 34.5384 52.9793C32.0603 52.9793 29.5481 52.9793 27.0701 52.9793C25.6175 52.9793 24.8485 53.8071 24.9339 55.0403C25.0194 56.2736 25.8568 56.7297 27.1727 56.7297C29.8387 56.7297 32.5047 56.7297 35.2049 56.7297C37.1874 56.6471 39.0696 55.845 40.4916 54.4768C41.9135 53.1086 42.7753 51.2702 42.9123 49.3133C42.9912 45.446 41.5594 41.6975 38.9145 38.8469C36.2696 35.9963 32.6151 34.2631 28.7108 34.0074Z" fill="#0369B2"/>
<path d="M19.1234 21.7424C17.5461 22.7566 15.8954 23.6544 14.1845 24.4286C13.3642 24.7664 12.6293 25.0029 12.0996 25.1888C10.6698 25.6784 9.19198 26.0181 7.69041 26.2024C6.40384 26.3603 5.10566 26.4055 3.81104 26.3376C5.3992 27.6604 7.25067 28.6388 9.24558 29.2095C10.5146 29.5281 11.816 29.7038 13.125 29.7332C15.0069 29.7421 16.8721 29.3834 18.6133 28.6776C20.3546 27.9719 21.9377 26.9329 23.2716 25.6206C24.6055 24.3082 25.664 22.7483 26.3863 21.0303C27.1085 19.3124 27.4803 17.4703 27.4803 15.6099V15.3228C26.7967 15.9478 25.7713 16.7587 24.6263 17.7217C22.8999 19.193 21.0663 20.5369 19.1405 21.7424H19.1234Z" fill="#FF0013"/>
<path d="M19.9095 8.90307C19.6532 9.00443 19.4139 9.05512 19.1747 9.13959C18.9354 9.22405 19.0721 9.13959 19.0721 9.29164V10.981C19.1185 11.001 19.1579 11.0342 19.1853 11.0763C19.2126 11.1184 19.2268 11.1675 19.2259 11.2175C19.3285 11.3527 19.3285 11.5554 19.4652 11.6906C19.6019 11.8257 19.4652 11.8933 19.3285 11.944H18.6449C18.4569 11.944 18.4569 11.8426 18.4911 11.6906C18.5253 11.5385 18.5936 11.5554 18.5936 11.5047C18.6327 11.4188 18.6845 11.339 18.7474 11.2682C18.7869 11.2118 18.8159 11.1489 18.8329 11.0824C18.8437 11.0585 18.8493 11.0326 18.8493 11.0064C18.8493 10.9802 18.8437 10.9542 18.8329 10.9303V8.95375C18.8329 8.85239 18.8329 8.85239 18.7304 8.85239V9.19026C18.7304 9.19026 18.7304 9.29163 18.6278 9.34232C18.1977 9.43582 17.7751 9.56004 17.3632 9.71398C17.3015 9.72972 17.2368 9.72972 17.1752 9.71398C17.0726 9.71398 16.9701 9.71398 16.8847 9.71398C16.7992 9.71398 16.3549 9.51125 16.0644 9.42678C16.3036 9.61261 16.5941 9.76466 16.8847 9.9505C16.9069 10.0105 16.9069 10.0763 16.8847 10.1363C16.8847 10.7614 16.8847 11.3865 16.8847 12.0116C15.8895 11.4258 14.7437 11.1382 13.5863 11.1837C12.4452 11.1382 11.3158 11.4262 10.3393 12.0116V11.1837C10.3393 10.8121 10.3393 10.3728 10.3393 10.0012C10.3393 9.89981 10.3393 9.84913 10.2538 9.84913L7.53658 8.98755C7.43404 8.98755 7.39986 8.98754 7.29732 8.85239L7.53658 8.70034C7.72456 8.70034 7.92963 8.5652 8.16889 8.51452L13.2958 6.82513C13.5595 6.72335 13.8524 6.72335 14.1161 6.82513C15.5687 7.34884 17.0214 7.82186 18.474 8.31179C18.5349 8.33238 18.601 8.33238 18.662 8.31179L19.0551 8.44694C19.291 8.55098 19.5373 8.63025 19.7899 8.68346C19.8592 8.72556 19.9224 8.7767 19.9779 8.83549L19.7899 8.97065L19.9095 8.90307ZM13.8085 16.8094C13.2799 16.7945 12.7628 16.6527 12.3018 16.3965C11.8409 16.1402 11.4498 15.777 11.1623 15.3382C10.8748 14.8994 10.6994 14.3981 10.6513 13.8775C10.6032 13.3568 10.6838 12.8325 10.8861 12.3494C10.8861 12.3494 10.9887 12.2143 11.0912 12.1636C11.6745 11.8539 12.3128 11.6589 12.9711 11.5892C13.2326 11.5666 13.4957 11.5666 13.7572 11.5892C14.6853 11.5652 15.6073 11.744 16.4574 12.1129C16.575 12.1617 16.6803 12.2354 16.766 12.3288C16.8516 12.4222 16.9154 12.5331 16.953 12.6535C17.0963 13.1367 17.1238 13.6463 17.0333 14.1419C16.9428 14.6374 16.7369 15.1054 16.4318 15.5086C16.1267 15.9118 15.7308 16.2393 15.2755 16.4651C14.8201 16.6909 14.3179 16.8088 13.8085 16.8094ZM19.1234 4.6965C17.0595 3.88062 14.8254 3.57452 12.6148 3.80472C10.4042 4.03491 8.28375 4.79446 6.4371 6.01756C4.59045 7.24065 3.07334 8.89041 2.01718 10.8239C0.961023 12.7574 0.397684 14.9163 0.375981 17.1135C0.374257 19.1926 0.872128 21.2423 1.8286 23.0939C2.6414 23.3056 3.47007 23.4525 4.30662 23.5332C5.32509 23.5779 6.34542 23.5099 7.34859 23.3305V22.2324C7.34859 20.8882 7.88874 19.5991 8.85023 18.6486C9.81171 17.6981 11.1158 17.1642 12.4755 17.1642H15.244C15.9073 17.1587 16.565 17.2843 17.1784 17.5339C17.7918 17.7834 18.3485 18.1517 18.8158 18.6171C20.2684 17.7386 21.6356 16.8432 22.9857 15.9309C23.9598 15.2552 24.9339 14.5794 24.9681 14.5794L26.865 13.1434H26.9676C26.3732 11.2471 25.3595 9.50534 23.9998 8.04434C22.6401 6.58334 20.9685 5.43976 19.1063 4.6965H19.1234Z" fill="#0369B2"/>
<path d="M3.55467 25.2902C5.35651 25.7178 7.23901 25.6829 9.02337 25.1888L10.083 24.9016C12.1798 24.3948 14.2017 23.6225 16.0985 22.604C17.3973 21.9283 18.9012 21.0667 20.5931 19.9686L20.9349 19.7828L21.6698 19.2928C21.6698 19.2928 22.4388 18.7691 23.2078 18.1947C24.4725 17.3331 32.1799 10.8628 32.1799 10.8628C32.1799 10.8628 32.573 10.3898 31.8894 10.4404C30.4881 11.3527 28.8816 12.4508 28.3518 12.8394C28.1434 13.0374 27.9142 13.2129 27.6683 13.3631C27.0872 13.7854 26.6087 14.174 26.2156 14.4105C25.344 15.0356 24.387 15.7113 23.2591 16.4716C23.2591 16.4716 21.5501 17.7217 19.8412 18.6847C19.4385 18.9675 19.0158 19.2216 18.5765 19.4449C16.494 20.6446 14.3298 21.7002 12.0995 22.604C10.8603 23.119 9.56389 23.4876 8.23726 23.7021C7.67534 23.8283 7.10365 23.9074 6.52829 23.9387C6.27194 23.9387 6.03267 23.9387 5.74215 24.04C5.01964 24.0919 4.29426 24.0919 3.57175 24.04L2.35839 23.8711C1.98242 23.7697 1.58935 23.6684 1.19629 23.5332C0.787345 23.3823 0.387867 23.2074 0 23.0095C0.88017 23.9748 1.97379 24.7264 3.19577 25.2057L3.48632 25.3071L3.55467 25.2902Z" fill="#FF0013"/>
<path d="M29.5821 11.6905C29.5978 11.6411 29.5978 11.588 29.5821 11.5385C29.5926 11.5175 29.5981 11.4944 29.5981 11.4709C29.5981 11.4475 29.5926 11.4244 29.5821 11.4034V11.2006V10.8627C29.5911 10.1712 29.8765 9.51126 30.376 9.02699C30.8755 8.54272 31.5485 8.27345 32.2481 8.27797C32.8854 8.27264 33.4992 8.51537 33.957 8.95373C34.0609 8.85669 34.1755 8.77167 34.2988 8.70032C34.3981 8.62522 34.5163 8.57848 34.6406 8.56518L34.1963 8.12593C33.6063 7.74333 32.9193 7.53257 32.2139 7.51775C31.5931 7.49476 30.9777 7.63945 30.4339 7.93627C29.8901 8.23309 29.4383 8.67082 29.1273 9.2024C28.8162 9.73398 28.6576 10.3393 28.6685 10.9533C28.6794 11.5673 28.8593 12.1668 29.189 12.6873C29.371 12.5022 29.578 12.343 29.8042 12.2143C29.7108 12.0579 29.6307 11.894 29.565 11.7243L29.5821 11.6905Z" fill="#FF0013"/>
<path d="M31.9238 11.0148C31.9257 10.9775 31.9171 10.9404 31.899 10.9077C31.8809 10.8749 31.854 10.8476 31.8213 10.829C31.7187 10.829 31.6333 10.677 31.5308 10.6263C31.4282 10.5756 31.3428 10.4911 31.2402 10.4405C31.2402 10.4405 31.3428 10.4405 31.4282 10.4405H31.582C31.6604 10.4613 31.7429 10.4613 31.8213 10.4405H32.0093L32.2485 10.3053L32.6929 9.86606C32.8178 9.78391 32.9325 9.68751 33.0347 9.57887L32.6929 9.44372C32.5835 9.38353 32.4692 9.33268 32.3511 9.29168L32.0093 9.15652L31.6675 9.00447C31.6675 9.00447 31.4795 9.00447 31.4282 9.00447C31.5081 8.93465 31.6123 8.89829 31.7187 8.90311C31.7971 8.88232 31.8796 8.88232 31.958 8.90311H32.1631H32.9492C33.0096 8.92664 33.0768 8.92664 33.1372 8.90311H33.2397C33.3174 8.92887 33.4014 8.92887 33.479 8.90311H33.5815V8.80175H33.6841C33.6841 8.80175 33.6841 8.80175 33.7866 8.80175C33.8892 8.80175 33.7866 8.70038 33.8721 8.70038L34.0259 8.56524C34.0979 8.55223 34.1638 8.51669 34.2139 8.46387H34.3677V8.59902C34.3281 8.67039 34.2824 8.73823 34.2309 8.80175L34.0429 8.98759C33.9404 9.08895 33.7866 9.17342 33.7012 9.27478V10.6094C33.7244 10.7038 33.7244 10.8022 33.7012 10.8966V11.0993C33.7117 11.1203 33.7172 11.1435 33.7172 11.1669C33.7172 11.1903 33.7117 11.2135 33.7012 11.2345C33.7193 11.3008 33.7193 11.3708 33.7012 11.4372C33.6674 11.4451 33.6323 11.4451 33.5986 11.4372C33.5888 11.3417 33.5888 11.2455 33.5986 11.15C33.571 11.0244 33.5368 10.9004 33.4961 10.7783C33.4961 10.6263 33.4961 10.4911 33.3936 10.3391C33.3551 10.2292 33.3265 10.1161 33.3081 10.0012C33.3081 9.91675 33.3081 9.86607 33.3081 9.7647C33.0688 10.0012 32.7783 10.2546 32.4878 10.4911L31.9238 11.0148Z" fill="#FF0013"/>
<path d="M33.6669 12.8394C33.3836 13.0461 33.0617 13.1954 32.7197 13.2784C32.3778 13.3615 32.0225 13.3768 31.6745 13.3234C31.3265 13.27 30.9927 13.1489 30.6923 12.9673C30.3919 12.7856 30.1309 12.5469 29.9243 12.265C29.578 11.7707 29.4095 11.1758 29.4458 10.5756C29.2578 10.5756 29.2065 10.4742 29.0527 10.4235L28.7109 10.2884C28.7274 10.4795 28.7274 10.6717 28.7109 10.8628C28.7314 11.5669 28.9634 12.2491 29.3774 12.8225C29.643 13.1837 29.9785 13.4893 30.3643 13.7217C30.7501 13.954 31.1787 14.1084 31.6253 14.1759C32.0718 14.2435 32.5275 14.2228 32.9659 14.1152C33.4044 14.0076 33.8169 13.8151 34.1796 13.5489L33.6669 12.8394Z" fill="#FF0013"/>
<path d="M44.3647 22.7899H46.9795C46.9378 23.5219 47.1825 24.2417 47.663 24.8002C47.9017 25.0523 48.1945 25.2483 48.5197 25.374C48.845 25.4997 49.1946 25.5519 49.5429 25.5267H52.0722C52.7048 25.5501 53.3299 25.3853 53.8666 25.0536C54.0689 24.8998 54.2338 24.7031 54.3492 24.478C54.4645 24.2529 54.5274 24.0051 54.5331 23.7528V22.7899C54.546 22.5972 54.5088 22.4044 54.425 22.2299C54.3413 22.0555 54.2138 21.9051 54.0546 21.7931C53.6761 21.4673 53.2041 21.2665 52.7045 21.2187L48.5346 20.4923C47.4489 20.3738 46.4215 19.9453 45.5781 19.259C45.2445 18.9542 44.9805 18.5825 44.8037 18.1689C44.6269 17.7552 44.5413 17.309 44.5527 16.8601V15.61C44.5415 14.8904 44.7631 14.186 45.185 13.5996C45.5982 12.9761 46.1946 12.4927 46.894 12.2143C47.7385 11.8693 48.6465 11.7024 49.56 11.7244H52.1235C52.9867 11.7121 53.839 11.9155 54.6015 12.3157C55.3444 12.6765 55.9455 13.2706 56.3104 14.005C56.7065 14.7553 56.9063 15.5916 56.8915 16.4378H54.2768C54.3136 15.8212 54.1051 15.2149 53.6957 14.7484C53.4968 14.538 53.2559 14.3708 52.9882 14.2574C52.7205 14.144 52.4318 14.0868 52.1405 14.0895H49.5771C48.9733 14.0817 48.38 14.2459 47.8681 14.5625C47.6625 14.6993 47.4963 14.8862 47.3855 15.1053C47.2747 15.3244 47.2231 15.5681 47.2358 15.8127V16.6236C47.2329 16.819 47.2709 17.0129 47.3473 17.1932C47.4238 17.3734 47.5371 17.5361 47.6802 17.671C48.0323 17.9989 48.4953 18.1856 48.979 18.1947L53.1147 18.8029C54.2174 18.9501 55.2579 19.3943 56.1225 20.0868C56.4685 20.3612 56.7446 20.712 56.9286 21.1111C57.1126 21.5101 57.1994 21.9462 57.182 22.3844V23.8711C57.2086 24.5928 56.9856 25.3019 56.5497 25.8814C56.1254 26.499 55.5329 26.9851 54.8407 27.2836C53.9913 27.61 53.086 27.7706 52.1747 27.7567H49.56C48.8723 27.813 48.1805 27.7205 47.5326 27.4857C46.8847 27.2509 46.2963 26.8795 45.8084 26.3971C45.3205 25.9148 44.9447 25.3332 44.7072 24.6927C44.4697 24.0522 44.3761 23.3683 44.4331 22.6885L44.3647 22.7899ZM59.6259 25.7632V11.9271H71.2981V14.174H62.2918V18.4819H70.6146V20.7288H62.2918V25.3746H71.2981V27.6722H61.6595C61.1262 27.6831 60.608 27.4962 60.2069 27.1485C59.8538 26.773 59.6636 26.2757 59.6771 25.7632H59.6259ZM77.8948 26.3376L72.409 11.9271H75.1775L79.6379 24.3779L84.1325 11.9271H86.8498L80.8 27.6722H79.5354C79.138 27.6809 78.7499 27.5524 78.438 27.3089C78.1261 27.0653 77.9098 26.7218 77.8264 26.3376H77.8948ZM88.8834 11.9271H91.5495V27.6722H88.8834V11.9271ZM94.318 22.7899H96.9327C96.8948 23.5185 97.1324 24.2351 97.5992 24.8002C97.8356 25.0458 98.1229 25.2379 98.4416 25.3633C98.7602 25.4887 99.1025 25.5445 99.4449 25.5267H102.008C102.613 25.5374 103.207 25.3729 103.717 25.0536C103.929 24.9071 104.101 24.7123 104.22 24.4859C104.339 24.2594 104.401 24.008 104.401 23.7528V22.7899C104.411 22.5976 104.372 22.4059 104.289 22.232C104.205 22.0581 104.079 21.9073 103.922 21.7931C103.531 21.4767 103.057 21.2774 102.555 21.2187L98.4708 20.4923C97.3858 20.371 96.3592 19.9428 95.5143 19.259C95.1796 18.9532 94.9126 18.5822 94.7303 18.1693C94.5479 17.7564 94.4541 17.3106 94.4547 16.8601V15.61C94.4549 14.892 94.6753 14.191 95.087 13.5996C95.5331 12.9722 96.1576 12.49 96.8815 12.2143C97.7069 11.8659 98.599 11.6988 99.4962 11.7244H102.06C102.94 11.7072 103.81 11.9106 104.589 12.3157C105.329 12.6806 105.929 13.2735 106.298 14.005C106.728 14.7442 106.947 15.5851 106.93 16.4378H104.315C104.344 15.8224 104.136 15.2193 103.734 14.7484C103.527 14.535 103.277 14.3663 103.001 14.2529C102.724 14.1395 102.427 14.0839 102.128 14.0895H99.5645C98.9597 14.0737 98.3641 14.2385 97.8556 14.5625C97.6405 14.6931 97.4641 14.8774 97.3441 15.0969C97.224 15.3164 97.1647 15.5633 97.172 15.8127V16.6236C97.1755 16.8212 97.2197 17.016 97.302 17.1961C97.3843 17.3762 97.5029 17.5378 97.6505 17.671C98.0088 18.0001 98.4774 18.1866 98.9664 18.1947L103.136 18.9212C104.231 19.0779 105.264 19.5212 106.127 20.2051C106.469 20.4837 106.744 20.8349 106.93 21.2326C107.116 21.6303 107.21 22.0644 107.204 22.5027V23.8711C107.207 24.5895 106.986 25.2914 106.571 25.8814C106.102 26.5113 105.462 26.9973 104.726 27.2836C103.88 27.6224 102.972 27.7835 102.06 27.7567H99.4449C98.7545 27.8252 98.0573 27.7412 97.4038 27.5107C96.7503 27.2802 96.1567 26.9091 95.6661 26.424C95.1754 25.939 94.8 25.3523 94.5668 24.7062C94.3337 24.0602 94.2487 23.371 94.318 22.6885V22.7899ZM115.475 21.9283V17.6203C115.448 16.5554 115.701 15.5017 116.21 14.5625C116.65 13.6839 117.339 12.9503 118.192 12.4508C119.133 11.9557 120.186 11.7056 121.251 11.7244H123.712C124.722 11.7139 125.719 11.9458 126.618 12.4001C127.439 12.8234 128.116 13.4754 128.566 14.2753C129.038 15.1222 129.268 16.0798 129.232 17.0459H126.6C126.627 16.6554 126.572 16.2636 126.44 15.8946C126.308 15.5257 126.101 15.1874 125.831 14.9004C125.558 14.6143 125.226 14.3893 124.858 14.2407C124.489 14.0921 124.093 14.0232 123.695 14.0388H121.234C120.801 14.0234 120.37 14.105 119.974 14.2776C119.577 14.4502 119.225 14.7093 118.944 15.0356C118.375 15.8154 118.087 16.7609 118.124 17.7217V21.8776C118.056 22.8264 118.348 23.7662 118.944 24.513C119.201 24.8413 119.534 25.1045 119.914 25.2807C120.295 25.457 120.712 25.5413 121.132 25.5267H123.746C124.149 25.5454 124.551 25.4729 124.921 25.3148C125.292 25.1567 125.62 24.9172 125.883 24.6144C126.466 23.9707 126.778 23.1303 126.754 22.2662V21.5059H122.345V19.2083H129.369V22.2662C129.39 23.2714 129.136 24.2635 128.634 25.1381C128.188 26.0039 127.476 26.7077 126.6 27.1485C125.714 27.634 124.708 27.8678 123.695 27.8242H121.081C120.031 27.8449 118.994 27.5945 118.073 27.0978C117.229 26.6165 116.541 25.9074 116.09 25.0536C115.623 24.0776 115.389 23.0081 115.407 21.9283H115.475ZM131.95 25.7632V11.9271H134.616V25.4422H143.246V27.7398H133.881C133.346 27.7557 132.826 27.5682 132.428 27.2161C132.092 26.8336 131.92 26.3365 131.95 25.8308V25.7632Z" fill="#FF0013"/>
<path d="M144.067 21.9283V17.6203C144.043 16.5577 144.289 15.5061 144.784 14.5625C145.252 13.6868 145.956 12.9559 146.818 12.4508C147.763 11.9677 148.813 11.7184 149.877 11.7244H152.235C153.311 11.7122 154.373 11.9617 155.329 12.4508C156.195 12.951 156.9 13.6831 157.362 14.5625C157.863 15.5046 158.116 16.5562 158.097 17.6203V21.9283C158.115 23.0139 157.863 24.0872 157.362 25.0536C156.907 25.9209 156.198 26.633 155.329 27.0978C154.376 27.595 153.312 27.845 152.235 27.8242H149.809C148.744 27.8386 147.692 27.5888 146.75 27.0978C145.887 26.6241 145.181 25.9143 144.716 25.0536C144.221 24.0859 143.974 23.0125 143.998 21.9283H144.067ZM152.235 25.5605C152.675 25.5766 153.113 25.4937 153.516 25.3181C153.918 25.1425 154.275 24.8788 154.56 24.5468C155.164 23.8019 155.474 22.8653 155.431 21.9114V17.7217C155.477 16.7674 155.167 15.8297 154.56 15.0863C154.277 14.7501 153.921 14.4813 153.519 14.2999C153.116 14.1186 152.678 14.0293 152.235 14.0388H149.86C149.418 14.0281 148.979 14.1168 148.576 14.2982C148.173 14.4797 147.818 14.7491 147.536 15.0863C146.929 15.8297 146.619 16.7674 146.664 17.7217V21.8776C146.622 22.8315 146.931 23.7681 147.536 24.513C147.819 24.8459 148.176 25.1104 148.579 25.286C148.982 25.4617 149.42 25.544 149.86 25.5267L152.235 25.5605ZM160.78 25.797V11.9271H168.283C169.504 11.8578 170.713 12.2101 171.701 12.9238C172.119 13.2258 172.456 13.6232 172.685 14.082C172.915 14.5409 173.028 15.0477 173.017 15.5593V16.7081C173.003 17.2269 172.868 17.7356 172.623 18.1947C172.377 18.6485 172.011 19.028 171.564 19.2928C172.27 19.5053 172.896 19.9233 173.358 20.4923C173.782 21.0606 174.015 21.746 174.025 22.452V23.5501C174.063 24.1179 173.967 24.6868 173.745 25.2116C173.523 25.7365 173.18 26.203 172.743 26.5741C171.737 27.3508 170.48 27.7409 169.206 27.6722H162.763C162.505 27.6825 162.249 27.6415 162.008 27.5515C161.767 27.4615 161.547 27.3245 161.361 27.1485C161.172 26.9725 161.027 26.7563 160.935 26.5163C160.843 26.2763 160.808 26.0187 160.832 25.7632L160.78 25.797ZM168.419 18.6678C168.672 18.6862 168.926 18.6488 169.163 18.5582C169.399 18.4676 169.612 18.3262 169.787 18.144C170.138 17.7606 170.327 17.2589 170.316 16.7418V15.8296C170.323 15.6055 170.274 15.3831 170.173 15.1826C170.071 14.9821 169.921 14.8096 169.735 14.6808C169.276 14.3794 168.731 14.2314 168.18 14.2584H163.429V18.634L168.419 18.6678ZM168.966 25.4253C169.57 25.4331 170.163 25.2689 170.675 24.9523C170.872 24.7783 171.029 24.5646 171.135 24.3256C171.241 24.0867 171.294 23.828 171.29 23.567V22.5534C171.3 22.3169 171.252 22.0817 171.151 21.8672C171.05 21.6527 170.899 21.4651 170.709 21.3201C170.303 20.9859 169.785 20.8116 169.257 20.8302H163.395V25.4253H168.966Z" fill="#FF0013"/>
<path d="M185.287 23.7528H178.946L177.494 27.6722H174.725L180.929 11.9271H182.091C182.47 11.9111 182.844 12.0203 183.153 12.2374C183.463 12.4546 183.69 12.7674 183.8 13.1265L189.474 27.6722H186.705L185.287 23.7528ZM179.715 21.5566H184.518L182.142 15.1876L179.715 21.5566Z" fill="#FF0013"/>
<path d="M191.149 25.7632V11.9271H193.815V25.4422H202.479V27.7397H193.08C192.822 27.7545 192.564 27.7152 192.323 27.6244C192.082 27.5337 191.863 27.3936 191.681 27.2133C191.499 27.033 191.357 26.8166 191.265 26.5783C191.173 26.3401 191.134 26.0853 191.149 25.8307V25.7632Z" fill="#FF0013"/>
<path d="M197.514 3.77059C197.515 3.26146 197.631 2.75902 197.856 2.30081C198.097 1.91264 198.425 1.58346 198.813 1.33786C199.248 1.10417 199.737 0.987648 200.231 0.999989C200.737 0.983266 201.239 1.09987 201.684 1.33786C202.072 1.58346 202.4 1.91264 202.641 2.30081C202.866 2.75902 202.982 3.26146 202.983 3.77059C202.981 4.2687 202.864 4.7598 202.641 5.20657C202.4 5.59474 202.072 5.92392 201.684 6.16952C201.239 6.40751 200.737 6.52411 200.231 6.50739C199.737 6.51973 199.248 6.40321 198.813 6.16952C198.425 5.92392 198.097 5.59474 197.856 5.20657C197.633 4.7598 197.516 4.2687 197.514 3.77059ZM202.351 3.77059C202.359 3.39411 202.271 3.02159 202.095 2.68778C201.919 2.35397 201.66 2.06973 201.342 1.86157C200.992 1.71036 200.614 1.62995 200.231 1.62506C199.86 1.63351 199.495 1.71386 199.155 1.86157C198.857 2.05452 198.611 2.31525 198.437 2.6218C198.252 2.97563 198.169 3.37318 198.198 3.77059C198.173 4.15691 198.255 4.54262 198.437 4.88558C198.611 5.19213 198.857 5.45286 199.155 5.64581C199.495 5.79352 199.86 5.87387 200.231 5.88232C200.614 5.87743 200.992 5.79702 201.342 5.64581C201.64 5.45286 201.886 5.19213 202.06 4.88558C202.258 4.54702 202.358 4.16148 202.351 3.77059ZM199.069 2.25013H200.607C200.72 2.23814 200.834 2.24839 200.942 2.28029C201.051 2.3122 201.152 2.36512 201.24 2.43597C201.321 2.49595 201.386 2.57552 201.428 2.66716C201.47 2.7588 201.487 2.85947 201.479 2.95967V3.29756C201.484 3.3681 201.474 3.43889 201.451 3.50567C201.427 3.57245 201.39 3.63382 201.342 3.68611C201.242 3.80644 201.103 3.88978 200.949 3.92263C201.052 3.97448 201.136 4.05728 201.188 4.15914C201.259 4.26201 201.311 4.37638 201.342 4.49702L201.582 5.25724H200.795L200.556 4.49702C200.522 4.41228 200.476 4.33267 200.419 4.26051C200.419 4.26051 200.266 4.26051 200.129 4.26051H199.736V5.30792H199.086L199.069 2.25013ZM200.368 3.58475C200.659 3.58475 200.761 3.48339 200.761 3.29756V3.06103C200.761 2.90899 200.659 2.82452 200.471 2.82452H199.787V3.58475H200.368Z" fill="white"/>
<path d="M47.082 45.8331C47.086 45.7098 47.1189 45.5892 47.1783 45.4807C47.2376 45.3722 47.3217 45.2788 47.4238 45.208C47.5772 45.0604 47.72 44.9024 47.8511 44.735C47.9323 44.5477 47.9787 44.3473 47.9878 44.1437C48.1063 43.8149 48.1922 43.4754 48.2441 43.1301L49.4062 36.0009C49.0138 35.9767 48.6202 36.0225 48.2441 36.136C48.0313 36.2128 47.8344 36.3273 47.6631 36.4739L47.4238 36.6259C47.3213 36.6259 47.3213 36.6259 47.3213 36.4739C47.3213 36.3218 47.3213 36.2881 47.3213 36.2374C47.3807 36.0346 47.4852 35.8474 47.6271 35.6896C47.7691 35.5318 47.9448 35.4072 48.1416 35.3251C48.7398 35.0717 49.3885 34.9561 50.0385 34.9872C50.4145 34.9872 50.8589 34.9872 51.4399 34.9872C51.9385 35.0526 52.4408 35.0864 52.9438 35.0886C53.3991 35.1083 53.8547 35.057 54.2939 34.9365C54.4499 34.8801 54.6098 34.8349 54.7724 34.8014H54.8749C54.8408 34.9679 54.7575 35.1207 54.6357 35.2406C54.4061 35.4458 54.1393 35.6063 53.8495 35.7137C53.451 35.8597 53.0264 35.9229 52.602 35.8995H51.5766H50.5683L49.936 39.6837H53.1147C53.1147 39.6837 53.2172 39.6837 53.2172 39.8189C53.1933 39.9487 53.1273 40.0673 53.0292 40.1568C52.8904 40.3393 52.7231 40.499 52.5337 40.6298C52.3756 40.7783 52.1702 40.8679 51.9526 40.8832L51.5766 40.7818C51.226 40.6851 50.864 40.634 50.5 40.6298H49.9702L49.4404 43.7551C49.4348 43.9215 49.3879 44.084 49.3037 44.2282C49.2745 44.3745 49.2033 44.5094 49.0986 44.6167L49.9189 44.7519C50.2089 44.7771 50.5005 44.7771 50.7905 44.7519C51.6892 44.7734 52.5727 44.5197 53.3198 44.0255C53.3198 44.0255 53.3198 44.0255 53.4052 44.0255H53.5078C53.6103 44.0255 53.6616 44.0255 53.6616 44.1606C53.644 44.3059 53.5952 44.4459 53.5186 44.5712C53.442 44.6964 53.3392 44.8041 53.2172 44.887C52.8886 45.1566 52.5119 45.3629 52.1064 45.4952C51.6823 45.6851 51.2219 45.783 50.7563 45.7824C50.2683 45.7539 49.783 45.6918 49.3037 45.5966C48.8081 45.5966 48.4663 45.4952 48.2783 45.4952C48.0423 45.4987 47.8095 45.5505 47.5947 45.6473C47.4914 45.715 47.375 45.761 47.2529 45.7824C47.1675 45.7824 47.1675 45.7824 47.1675 45.6473L47.082 45.8331Z" fill="#0369B2"/>
<path d="M57.5411 44.5323C57.5362 43.5407 57.7521 42.5602 58.1734 41.6603C58.5704 40.7679 59.1527 39.9679 59.8824 39.3121C60.5284 38.7536 61.349 38.4315 62.2066 38.3998H62.4117C62.6451 37.2957 62.9651 36.2112 63.3687 35.1562C63.6443 34.4732 64.057 33.8525 64.5821 33.3316C64.8467 33.0671 65.1599 32.855 65.5049 32.7066C65.8789 32.5532 66.2685 32.4399 66.667 32.3687C66.8146 32.3519 66.9637 32.3519 67.1114 32.3687C67.1114 32.3687 67.2481 32.2673 67.2993 32.2673C67.3506 32.2673 67.4019 32.2673 67.4019 32.4025C67.4019 32.5376 67.2993 32.6897 67.1114 32.8924L66.8037 33.0782C66.7183 33.0782 66.6157 33.0782 66.5132 33.0782H66.3252C65.7695 33.192 65.2728 33.4974 64.9239 33.9398C64.5992 34.4112 64.3512 34.9299 64.189 35.4772C63.8443 36.6597 63.5703 37.8612 63.3687 39.0756C62.7535 41.9982 62.4117 43.7721 62.3091 44.3465V44.583C62.3091 44.8195 62.3091 44.9715 62.4971 44.9715C62.6851 44.9715 62.8389 44.8195 62.9927 44.6337C63.1831 44.3464 63.3434 44.0407 63.4712 43.7214C63.5738 43.5862 63.625 43.5356 63.6592 43.5356C63.6934 43.5356 63.7618 43.5356 63.7618 43.7214V43.9579C63.6775 44.3413 63.5146 44.7035 63.2832 45.0222C63.0946 45.3376 62.8449 45.6132 62.5484 45.8331C62.3259 46.0009 62.0586 46.1007 61.7794 46.1203C61.4376 46.1203 61.2496 45.8331 61.2496 45.2587C61.2653 45.0144 61.2996 44.7716 61.3521 44.5323L61.5914 43.147C61.185 43.8664 60.6788 44.526 60.0875 45.1067C59.9028 45.3741 59.6652 45.6017 59.3891 45.7759C59.1131 45.9501 58.8041 46.0673 58.481 46.1203C57.9 46.1203 57.6607 45.5966 57.6607 44.583L57.5411 44.5323ZM61.899 40.6636L62.1382 39.65C61.8471 39.4341 61.4939 39.3157 61.13 39.3121C60.8762 39.3239 60.6302 39.4021 60.4171 39.5386C60.2039 39.6751 60.0312 39.8651 59.9166 40.0892C59.5017 40.6692 59.1897 41.3148 58.9937 41.9982C58.8122 42.6537 58.7146 43.3291 58.7032 44.0086C58.6776 44.2059 58.7134 44.4062 58.8057 44.583C58.8057 44.735 58.9425 44.7688 59.0963 44.7688C59.3 44.7302 59.494 44.6521 59.667 44.539C59.8401 44.4259 59.9888 44.2801 60.1046 44.11C60.527 43.5889 60.8882 43.0222 61.1812 42.4206C61.4768 41.8825 61.7173 41.3165 61.899 40.7312V40.6636Z" fill="#0369B2"/>
<path d="M68.2905 45.056C68.3068 44.5911 68.3582 44.128 68.4443 43.6707L68.9741 40.4608C68.9741 40.0892 69.0766 39.8358 69.0766 39.802C69.0766 39.7682 69.0766 39.5486 68.9228 39.5486C68.769 39.5486 68.3931 39.8865 68.0513 40.5115C68.0513 40.5115 68.0513 40.6129 67.9658 40.6974C67.946 40.7712 67.9111 40.8402 67.8633 40.9001C67.8301 40.9117 67.7939 40.9117 67.7607 40.9001V40.7649C67.792 40.4549 67.9039 40.1581 68.0854 39.9033C68.2988 39.5363 68.5635 39.2007 68.8716 38.9066C68.9846 38.7683 69.1245 38.6537 69.283 38.5696C69.4414 38.4854 69.6153 38.4335 69.7944 38.4167C69.8739 38.4232 69.9503 38.45 70.0162 38.4944C70.0821 38.5388 70.1352 38.5993 70.1704 38.6701C70.2839 38.8398 70.3379 39.0415 70.3242 39.2445V39.5655L69.4526 44.1437V44.4309C69.4526 44.6843 69.4526 44.7688 69.709 44.7688C69.9325 44.7294 70.1459 44.6464 70.3366 44.5245C70.5273 44.4027 70.6916 44.2445 70.8198 44.0592C71.2706 43.5521 71.6448 42.983 71.9306 42.3699C72.1875 41.8299 72.3824 41.2633 72.5117 40.6805L72.7509 39.5317C72.8166 39.1987 72.9906 38.8961 73.2465 38.6701C73.4406 38.481 73.6934 38.362 73.9643 38.3322C74.0668 38.3322 74.1181 38.3322 74.1181 38.4336C74.1377 38.494 74.1377 38.559 74.1181 38.6194C74.0642 38.7071 74.0293 38.8049 74.0156 38.9066C73.8788 39.5824 73.5883 41.1197 73.144 43.468L73.0415 43.941C72.9792 44.1798 72.9336 44.4225 72.9047 44.6674C72.9047 44.8026 72.9047 44.8533 73.0415 44.8533C73.1613 44.835 73.2756 44.7907 73.3761 44.7235C73.4766 44.6563 73.5607 44.5679 73.6225 44.4647C73.8257 44.2006 73.9924 43.9108 74.1181 43.6031C74.2035 43.468 74.2548 43.4173 74.3061 43.4173C74.3574 43.4173 74.4086 43.4173 74.4086 43.5524C74.4086 43.6876 74.4086 43.7552 74.4086 43.8396C74.2492 44.5901 73.8176 45.2571 73.1953 45.7148C72.9864 45.8837 72.7296 45.9841 72.4604 46.002C72.0332 46.002 71.8452 45.6642 71.8452 45.0391C71.8452 44.7519 71.8452 44.3802 72.0332 43.8903L72.1699 43.0794C71.7162 43.8679 71.1394 44.5805 70.4609 45.1911C69.8798 45.7149 69.4526 46.002 69.0596 46.002C68.6665 46.002 68.3759 45.6642 68.3759 44.9884L68.2905 45.056ZM78.3222 44.0086C78.3378 43.1497 78.5357 42.3036 78.9032 41.5252C79.2367 40.6886 79.7498 39.9336 80.4071 39.3121C80.6458 39.0427 80.9366 38.8232 81.2624 38.6665C81.5882 38.5099 81.9423 38.4192 82.3041 38.3998C82.4233 38.3864 82.544 38.3975 82.6587 38.4324C82.7734 38.4673 82.8796 38.5252 82.9706 38.6025C83.0465 38.6436 83.1092 38.705 83.1516 38.7797C83.1939 38.8544 83.2141 38.9394 83.2098 39.0249C83.2076 39.2308 83.1421 39.4311 83.0219 39.5993C83.0219 39.7513 82.8851 39.802 82.8339 39.802C82.8067 39.802 82.7806 39.7913 82.7614 39.7723C82.7421 39.7533 82.7313 39.7275 82.7313 39.7006C82.6235 39.5606 82.4836 39.4478 82.3233 39.3715C82.1629 39.2951 81.9864 39.2574 81.8085 39.2614C81.3647 39.2854 80.9479 39.4793 80.6464 39.802C80.2524 40.1917 79.9542 40.6656 79.7748 41.1873C79.5804 41.8053 79.4824 42.4491 79.4843 43.0963C79.4843 44.2451 79.7748 44.8702 80.4584 44.8702C80.6232 44.8702 80.7862 44.8356 80.9365 44.7686C81.0868 44.7016 81.2209 44.6038 81.33 44.4816C81.5888 44.1893 81.8178 43.8724 82.0136 43.5355C82.0136 43.5355 82.0136 43.5355 82.099 43.4342C82.1845 43.3328 82.099 43.3328 82.2016 43.299H82.3041C82.3149 43.3229 82.3205 43.3488 82.3205 43.375C82.3205 43.4012 82.3149 43.4272 82.3041 43.4511C82.2773 43.8361 82.1277 44.2028 81.8768 44.4985C81.5991 44.9253 81.2319 45.2882 80.8002 45.5628C80.4651 45.8466 80.0445 46.013 79.6039 46.0358C79.3873 46.0574 79.1695 46.0079 78.9841 45.8949C78.7988 45.782 78.6562 45.6118 78.5785 45.4108C78.3321 44.9727 78.2138 44.4755 78.2367 43.9748L78.3222 44.0086Z" fill="#0369B2"/>
<path d="M86.5083 44.5323C86.5145 43.5419 86.7299 42.5637 87.1406 41.6604C87.5321 40.7648 88.1151 39.9637 88.8496 39.3121C89.5106 38.7451 90.3502 38.4227 91.2251 38.3998C91.61 38.3996 91.9899 38.4863 92.3359 38.6533C92.1992 39.177 92.0966 39.5486 92.0454 39.802L91.7036 41.4914C91.413 42.826 91.2251 43.7383 91.1738 44.262V44.4985C91.1738 44.7351 91.1738 44.8871 91.3618 44.8871C91.5498 44.8871 91.7036 44.7351 91.8574 44.5492C92.0112 44.3634 92.1479 44.0255 92.3359 43.6369C92.3359 43.6369 92.4384 43.5356 92.4897 43.5356C92.541 43.5356 92.4897 43.5356 92.4897 43.7214V43.9579C92.3922 44.3288 92.2487 44.6862 92.0624 45.0222C91.8587 45.3285 91.5906 45.5879 91.2763 45.7825C91.069 45.9822 90.7962 46.102 90.5073 46.1204C90.1655 46.1204 89.9775 45.8332 89.9775 45.2081C89.9523 44.9722 89.9523 44.7344 89.9775 44.4985L90.268 43.147C89.7878 43.9328 89.2141 44.6587 88.5591 45.3095C88.1755 45.7444 87.649 46.0316 87.0722 46.1204C86.5254 46.1204 86.2861 45.5966 86.2861 44.583L86.5083 44.5323ZM90.8662 40.6636L91.1054 39.65C90.8143 39.4341 90.4611 39.3157 90.0971 39.3121C89.8378 39.3282 89.5866 39.4077 89.3659 39.5433C89.1452 39.6789 88.9619 39.8665 88.8325 40.0892C88.4419 40.6761 88.1477 41.3204 87.9609 41.9982C87.7794 42.6537 87.6818 43.3291 87.6704 44.0086C87.64 44.1989 87.64 44.3927 87.6704 44.583C87.7014 44.6448 87.7507 44.6956 87.8118 44.7289C87.8729 44.7621 87.9428 44.776 88.0122 44.7688C88.4119 44.695 88.7672 44.471 89.0034 44.1438C89.4079 43.6103 89.7679 43.0454 90.0801 42.4544C90.3756 41.9163 90.6161 41.3504 90.7978 40.765L90.8662 40.6636Z" fill="#0369B2"/>
<path d="M97.3091 44.8702C97.2836 44.5835 97.2836 44.2952 97.3091 44.0086C97.3091 43.6707 97.4116 43.4849 97.4116 43.4342L98.0952 39.4134H96.3862C96.3862 39.4134 96.3862 39.4134 96.3862 39.3121C96.3862 39.2107 96.4888 39.0755 96.728 38.8897C96.9673 38.7039 97.1211 38.6025 97.2065 38.6025H98.1806L98.3345 37.5889C98.4083 37.2368 98.5939 36.9172 98.8642 36.6766C98.9598 36.5495 99.0832 36.4455 99.2253 36.3723C99.3674 36.2991 99.5244 36.2588 99.6845 36.2543C99.7117 36.2543 99.7378 36.2649 99.757 36.284C99.7763 36.303 99.7871 36.3287 99.7871 36.3556C99.7456 36.4833 99.6941 36.6075 99.6333 36.7273C99.5571 36.9315 99.4943 37.1402 99.4453 37.3524L99.2573 38.6025H100.795H100.898C100.898 38.6025 100.744 38.8052 100.505 38.9911C100.266 39.1769 100.129 39.329 100.026 39.329H99.2573L98.5737 43.299C98.5919 43.4901 98.5919 43.6824 98.5737 43.8734C98.5737 44.1099 98.5737 44.3633 98.5737 44.4985C98.5737 44.6336 98.7104 45.0222 98.9155 45.0222C99.0153 45.0195 99.1135 44.9972 99.2044 44.9566C99.2954 44.916 99.3773 44.8579 99.4453 44.7857C99.6681 44.5999 99.8486 44.3696 99.9751 44.1099C99.9751 44.1099 99.9751 44.1099 99.9751 44.2958C99.9592 44.5624 99.8574 44.8169 99.6845 45.0222C99.4864 45.3107 99.2443 45.5672 98.9668 45.7824C98.7335 45.9662 98.4447 46.0673 98.1465 46.0696C98.0185 46.0859 97.8887 46.0621 97.7752 46.0015C97.6617 45.9408 97.5704 45.8465 97.5141 45.7317C97.3499 45.4754 97.2777 45.172 97.3091 44.8702Z" fill="#0369B2"/>
<path d="M106.179 37.3862L106.367 36.2881C106.417 36.0365 106.535 35.8029 106.708 35.6123C106.799 35.5277 106.907 35.4629 107.025 35.4221C107.142 35.3814 107.268 35.3656 107.392 35.3758H107.58V35.511L107.392 36.626C107.368 36.8808 107.245 37.1168 107.05 37.2848C106.976 37.3795 106.88 37.4551 106.77 37.5051C106.659 37.5551 106.539 37.5781 106.418 37.572H106.332C106.23 37.572 106.179 37.572 106.179 37.3862ZM104.88 45.377C104.888 45.0882 104.916 44.8003 104.965 44.5154L105.751 40.3595C105.763 40.1851 105.763 40.0102 105.751 39.8358C105.751 39.6838 105.751 39.5824 105.615 39.5824C105.478 39.5824 105.375 39.6838 105.17 39.9203C104.933 40.1948 104.737 40.5022 104.589 40.8326C104.589 40.9846 104.589 41.0184 104.401 41.0184C104.213 41.0184 104.299 41.0184 104.299 40.8832C104.349 40.5356 104.484 40.2053 104.692 39.9203C104.893 39.5211 105.171 39.1651 105.512 38.8729C105.757 38.623 106.084 38.4674 106.435 38.4336C106.777 38.4336 106.913 38.687 106.913 39.1601C106.919 39.4496 106.89 39.7387 106.828 40.0216L106.093 44.5323V44.735C106.093 44.8195 106.093 44.9209 106.23 44.9209C106.367 44.9209 106.469 44.7688 106.674 44.583C106.908 44.3056 107.103 43.9988 107.255 43.6707C107.255 43.5356 107.255 43.4849 107.443 43.4849C107.631 43.4849 107.443 43.4849 107.443 43.6707C107.416 44.0156 107.298 44.3475 107.101 44.6337C106.902 45.0196 106.623 45.3594 106.281 45.6304C106.048 45.8688 105.741 46.0234 105.41 46.0697C105.068 46.0697 104.88 45.8332 104.88 45.3432V45.377Z" fill="#0369B2"/>
<path d="M111.459 44.1437C111.468 43.2459 111.685 42.3619 112.091 41.559C112.444 40.7324 112.954 39.9809 113.595 39.3459C114.038 38.8513 114.643 38.528 115.304 38.4336C115.503 38.4358 115.698 38.4901 115.87 38.5909C116.041 38.6918 116.182 38.8357 116.278 39.008C116.502 39.4418 116.613 39.9235 116.603 40.4102C116.588 41.2854 116.39 42.148 116.022 42.9443C115.701 43.7595 115.232 44.5096 114.638 45.1574C114.209 45.6684 113.596 45.9954 112.929 46.0696C112.729 46.0786 112.53 46.0349 112.353 45.9428C112.176 45.8508 112.026 45.7138 111.92 45.5459C111.662 45.1125 111.543 44.6118 111.579 44.1099L111.459 44.1437ZM115.475 41.2718C115.475 40.123 115.133 39.5824 114.552 39.5824C114.335 39.5816 114.121 39.6393 113.935 39.7494C113.748 39.8596 113.595 40.0179 113.493 40.2074C113.198 40.6759 112.984 41.1898 112.86 41.7279C112.698 42.2765 112.617 42.8456 112.621 43.4173C112.59 43.842 112.673 44.2672 112.86 44.6505C112.915 44.7986 113.015 44.9259 113.147 45.0139C113.279 45.102 113.436 45.1463 113.595 45.1405C113.781 45.1276 113.961 45.072 114.121 44.9781C114.282 44.8843 114.417 44.7548 114.518 44.5999C114.848 44.1899 115.092 43.7189 115.236 43.2146C115.396 42.6079 115.477 41.9833 115.475 41.3562V41.2718Z" fill="#0369B2"/>
<path d="M120.858 45.9683C120.841 45.8733 120.841 45.7761 120.858 45.6811C120.947 45.452 121.01 45.2141 121.046 44.9716C121.379 43.5328 121.636 42.078 121.816 40.6129C121.816 40.2244 121.918 39.9372 121.918 39.802C121.918 39.6669 121.918 39.5486 121.816 39.5486C121.713 39.5486 121.388 39.8865 120.995 40.5116C120.961 40.5963 120.915 40.6759 120.858 40.7481C120.858 40.8494 120.858 40.9001 120.756 40.9001C120.653 40.9001 120.756 40.9001 120.653 40.9001C120.551 40.9001 120.568 40.9001 120.568 40.7481C120.589 40.4174 120.708 40.1002 120.91 39.8358C121.146 39.4753 121.421 39.1412 121.73 38.8391C121.964 38.5933 122.268 38.4226 122.602 38.3492C122.678 38.3521 122.751 38.3779 122.812 38.4232C122.874 38.4685 122.919 38.531 122.943 38.6026C123.037 38.7613 123.084 38.9426 123.08 39.1263C123.043 39.8202 122.946 40.5098 122.79 41.1873C123.206 40.4173 123.749 39.7209 124.396 39.1263C124.79 38.7104 125.313 38.4368 125.883 38.3492C126.327 38.3492 126.566 38.687 126.566 39.3121C126.547 39.6976 126.501 40.0815 126.43 40.4609L126.139 42.4544C125.9 43.789 125.746 44.5492 125.746 44.7519C125.746 44.9547 125.746 44.8871 125.746 44.9378C125.768 44.9671 125.796 44.9913 125.829 45.0088C125.861 45.0263 125.897 45.0366 125.934 45.0391C126.225 45.0391 126.566 44.5999 126.908 43.7383C126.908 43.6032 127.011 43.5525 127.096 43.5525C127.182 43.5525 127.199 43.5525 127.199 43.7383C127.199 43.9241 127.199 43.941 127.199 43.9748C127.149 44.3594 127.002 44.7253 126.772 45.0391C126.564 45.3561 126.297 45.6313 125.985 45.85C125.759 46.0101 125.494 46.1091 125.216 46.1372C125.116 46.1451 125.016 46.1216 124.93 46.07C124.844 46.0185 124.777 45.9415 124.738 45.85C124.675 45.6474 124.64 45.437 124.635 45.225C124.708 44.3725 124.84 43.5259 125.028 42.6909C125.268 41.4914 125.404 40.6805 125.456 40.1906C125.488 40.0688 125.488 39.9407 125.456 39.8189C125.456 39.7176 125.319 39.7176 125.165 39.7176C124.961 39.7411 124.764 39.8094 124.59 39.9175C124.415 40.0256 124.267 40.1709 124.157 40.3426C123.738 40.8129 123.392 41.3424 123.131 41.9138C122.849 42.443 122.652 43.0132 122.55 43.6032L122.26 44.9378C122.183 45.2338 122.016 45.4992 121.781 45.698C121.584 45.9009 121.327 46.0369 121.046 46.0866C120.961 46.0866 120.91 46.0866 120.91 45.9852L120.858 45.9683ZM139.025 45.7318C139.036 45.6295 139.071 45.5311 139.127 45.4446C139.186 45.3048 139.288 45.1867 139.418 45.1067C139.58 44.9671 139.723 44.8082 139.845 44.6337C139.944 44.5248 140.01 44.3898 140.033 44.2451C140.033 44.0593 140.136 43.7214 140.238 43.1977L141.212 37.5889C141.296 37.2831 141.483 37.0148 141.742 36.8287C141.976 36.5997 142.285 36.4618 142.614 36.4401C142.75 36.4401 142.802 36.4401 142.802 36.4401C142.777 36.5442 142.73 36.6419 142.665 36.7273C142.527 36.9483 142.44 37.1961 142.409 37.4538L141.981 40.5116C142.69 40.6351 143.419 40.5346 144.066 40.2244C144.457 39.9783 144.776 39.6344 144.989 39.2276C145.202 38.8075 145.319 38.346 145.331 37.8761C145.353 37.5618 145.303 37.2467 145.184 36.9542C145.066 36.6617 144.882 36.3994 144.647 36.1867C144.11 35.7673 143.433 35.5623 142.75 35.6123C142.161 35.6174 141.579 35.744 141.041 35.984C140.496 36.2091 140.01 36.556 139.623 36.9976C139.559 37.1054 139.479 37.2024 139.384 37.2848C139.384 37.2848 139.281 37.2848 139.196 37.2848C139.169 37.2848 139.142 37.2742 139.123 37.2551C139.104 37.2361 139.093 37.2104 139.093 37.1835V36.9976C139.219 36.5702 139.468 36.1885 139.811 35.8995C140.24 35.5214 140.739 35.2288 141.281 35.038C141.921 34.8352 142.591 34.7382 143.263 34.7508C144.111 34.7021 144.953 34.9146 145.673 35.3589C145.959 35.5827 146.191 35.8675 146.351 36.1922C146.511 36.5169 146.594 36.8731 146.596 37.2342C146.584 37.9481 146.331 38.6377 145.878 39.1938C145.391 39.7944 144.779 40.2842 144.083 40.6298C143.383 41.0124 142.608 41.2428 141.81 41.3056L141.247 44.1438C141.231 44.3904 141.128 44.6237 140.956 44.8026C141.041 44.8075 141.127 44.8075 141.212 44.8026C141.319 44.8314 141.431 44.8314 141.537 44.8026C141.667 44.8254 141.8 44.8254 141.93 44.8026C141.96 44.7695 141.997 44.7432 142.038 44.7257C142.08 44.7082 142.124 44.6998 142.169 44.7013C142.197 44.7013 142.223 44.7119 142.242 44.7309C142.261 44.75 142.272 44.7757 142.272 44.8026C142.272 44.904 142.272 44.9885 142.084 45.1405C141.691 45.5628 141.349 45.7994 141.11 45.7994C140.927 45.7827 140.748 45.7371 140.58 45.6642C140.359 45.5856 140.13 45.5346 139.896 45.5122C139.726 45.5206 139.561 45.573 139.418 45.6642C139.332 45.7299 139.233 45.776 139.127 45.7994C139.127 45.7994 139.025 45.7994 139.025 45.6135V45.7318ZM152.098 45.1067C152.098 44.3972 152.098 43.5356 152.098 42.5726C152.039 41.7965 151.908 41.0274 151.705 40.2751C151.603 39.8358 151.415 39.65 151.227 39.65C151.039 39.65 150.971 39.65 150.936 39.8358C150.833 40.054 150.747 40.28 150.68 40.5116C150.68 40.6974 150.543 40.7988 150.492 40.7988C150.441 40.7988 150.355 40.6974 150.355 40.5623C150.348 40.2481 150.412 39.9363 150.543 39.65C150.647 39.3357 150.809 39.0434 151.022 38.7884C151.12 38.6749 151.24 38.5821 151.375 38.5153C151.51 38.4486 151.657 38.4093 151.808 38.3998C152.286 38.3998 152.628 38.7377 152.816 39.4642C153.044 40.3258 153.176 41.2095 153.209 42.0996C153.312 42.8091 153.312 43.2991 153.346 43.5863V44.1438C153.346 44.3296 153.449 44.431 153.5 44.431C153.551 44.431 153.978 44.1944 154.269 43.7552C154.63 43.2668 154.923 42.7327 155.14 42.1672C155.346 41.7026 155.462 41.2041 155.482 40.6974C155.51 40.5353 155.51 40.3696 155.482 40.2075C155.416 40.086 155.336 39.9727 155.243 39.8696C155.243 39.7345 155.14 39.6838 155.14 39.5824C155.187 39.3233 155.327 39.0895 155.534 38.9236C155.773 38.6364 155.978 38.4336 156.115 38.4336C156.251 38.4336 156.303 38.535 156.405 38.7208C156.514 38.9476 156.566 39.1965 156.559 39.4473C156.496 40.3657 156.246 41.262 155.824 42.0827C155.379 43.0915 154.804 44.0396 154.115 44.904C153.483 45.6642 152.902 46.1035 152.406 46.1035C152.369 46.101 152.333 46.0906 152.301 46.0731C152.268 46.0556 152.24 46.0314 152.218 46.0021C152.218 46.0021 152.218 45.8669 152.116 45.7149V45.1405L152.098 45.1067ZM161.071 44.8702C161.045 44.5836 161.045 44.2953 161.071 44.0086C161.071 43.6707 161.156 43.4849 161.156 43.4342L161.84 39.4135H160.131C160.131 39.4135 160.131 39.4135 160.131 39.3121C160.131 39.2107 160.216 39.0756 160.472 38.8898C160.729 38.7039 160.848 38.6026 160.951 38.6026H161.925L162.062 37.5889C162.136 37.2369 162.321 36.9173 162.592 36.6767C162.691 36.5537 162.815 36.4527 162.957 36.38C163.098 36.3072 163.253 36.2645 163.412 36.2543C163.439 36.2543 163.465 36.265 163.484 36.284C163.504 36.303 163.514 36.3288 163.514 36.3557C163.514 36.3557 163.514 36.4908 163.378 36.7273C163.289 36.9286 163.22 37.138 163.173 37.3524L162.985 38.6026H164.54C164.54 38.6026 164.403 38.8053 164.164 38.9911C163.925 39.177 163.771 39.329 163.668 39.329H162.797L162.13 43.2991C162.148 43.4901 162.148 43.6824 162.13 43.8735C162.079 44.0787 162.045 44.2878 162.028 44.4985C162.028 44.8871 162.181 45.0222 162.369 45.0222C162.469 45.0205 162.568 44.9986 162.659 44.958C162.75 44.9173 162.832 44.8587 162.899 44.7857C163.127 44.6047 163.308 44.3732 163.429 44.11C163.429 44.11 163.532 44.11 163.532 44.2958C163.507 44.5605 163.406 44.8127 163.241 45.0222C163.032 45.3077 162.785 45.5635 162.506 45.7825C162.287 45.9569 162.018 46.0576 161.737 46.0697C161.395 46.0697 161.156 45.9683 161.054 45.7318C160.904 45.47 160.839 45.1696 160.866 44.8702H161.071ZM174.623 45.7825C174.624 45.6129 174.677 45.4478 174.777 45.3094C174.892 45.1253 175.037 44.96 175.204 44.8195C175.36 44.699 175.553 44.6336 175.751 44.6337H176.161C176.322 44.4267 176.454 44.1994 176.554 43.9579C176.679 43.6203 176.759 43.2683 176.793 42.9105L177.767 37.3017C177.841 36.8786 177.991 36.4722 178.212 36.1023C178.438 35.6759 178.733 35.2881 179.083 34.9535C179.382 34.6277 179.746 34.3666 180.152 34.1863C180.558 34.0061 180.997 33.9107 181.442 33.9061C181.652 33.8803 181.864 33.8803 182.074 33.9061L182.604 34.0412C182.757 34.1426 182.809 34.1933 182.809 34.2439C182.809 34.2946 182.706 34.4805 182.416 34.5649C182.235 34.6645 182.039 34.733 181.835 34.7676L181.493 34.6663C181.305 34.6067 181.109 34.5726 180.912 34.5649C180.526 34.5817 180.156 34.7176 179.852 34.9535C179.626 35.1597 179.461 35.4224 179.374 35.7137C179.197 36.1113 179.082 36.5326 179.032 36.9639L177.819 43.5356C177.773 43.7453 177.705 43.9493 177.613 44.1438C177.548 44.3314 177.437 44.4999 177.289 44.6337C177.656 44.7003 178.027 44.7454 178.4 44.7688C178.929 44.7688 179.322 44.7688 179.613 44.7688C180.498 44.7829 181.369 44.5486 182.125 44.0931C182.205 44.0863 182.285 44.0863 182.364 44.0931C182.364 44.0931 182.467 44.0931 182.467 44.2789C182.443 44.4153 182.391 44.5454 182.314 44.6615C182.238 44.7776 182.139 44.8773 182.023 44.9547C181.675 45.236 181.282 45.4586 180.86 45.6135C180.355 45.8108 179.815 45.9083 179.271 45.9007C178.785 45.8858 178.299 45.8406 177.819 45.7656L177.084 45.6642C176.748 45.641 176.411 45.641 176.075 45.6642C175.849 45.6334 175.619 45.6334 175.392 45.6642L174.999 45.8163C174.937 45.8301 174.873 45.8301 174.811 45.8163C174.811 45.8163 174.811 45.8163 174.708 45.8163V45.8332L174.623 45.7825Z" fill="#0369B2"/>
<path d="M186.739 44.8702C186.748 44.5806 186.783 44.2923 186.842 44.0086C186.857 43.8174 186.857 43.6254 186.842 43.4342L187.508 39.4134H185.919C185.892 39.4134 185.866 39.4027 185.846 39.3837C185.827 39.3647 185.816 39.3389 185.816 39.3121C185.816 39.3121 185.97 39.0755 186.158 38.8897C186.301 38.7427 186.486 38.6425 186.688 38.6025H187.611L187.799 37.5889C187.855 37.2382 188.03 36.9166 188.294 36.6766C188.404 36.5522 188.537 36.4508 188.687 36.3782C188.837 36.3057 189 36.2635 189.166 36.2543C189.166 36.2543 189.166 36.2543 189.166 36.3556C189.135 36.4844 189.089 36.6091 189.029 36.7273C188.938 36.9261 188.874 37.1364 188.841 37.3524L188.636 38.6025H190.191C190.294 38.6025 190.294 38.6025 190.294 38.6025C190.294 38.6025 190.191 38.8052 189.952 38.9911C189.808 39.1318 189.641 39.2462 189.457 39.329H188.551L187.918 43.299C187.918 43.4004 187.918 43.5862 187.816 43.8734C187.765 44.0787 187.73 44.2877 187.713 44.4985C187.713 44.887 187.867 45.0222 188.106 45.0222C188.305 45.003 188.491 44.9199 188.636 44.7857C188.853 44.6022 189.023 44.3706 189.132 44.1099C189.132 44.1099 189.234 44.1099 189.234 44.2958C189.21 44.5604 189.109 44.8126 188.944 45.0222C188.759 45.3103 188.528 45.567 188.26 45.7824C188.019 45.9517 187.735 46.0512 187.44 46.0696C187.305 46.0848 187.169 46.0609 187.047 46.0009C186.926 45.941 186.825 45.8474 186.756 45.7317C186.607 45.4699 186.541 45.1695 186.568 44.8702H186.739Z" fill="#0369B2"/>
<path d="M193.421 44.5323C193.428 43.5419 193.643 42.5637 194.054 41.6603C194.463 40.7747 195.043 39.9769 195.763 39.3121C196.409 38.7536 197.229 38.4315 198.087 38.3998H198.292C198.533 37.2977 198.853 36.2138 199.249 35.1562C199.525 34.4732 199.937 33.8525 200.462 33.3316C200.727 33.0671 201.04 32.855 201.385 32.7066C201.759 32.5532 202.149 32.4399 202.547 32.3687C202.695 32.3534 202.844 32.3534 202.992 32.3687C203.077 32.3687 203.128 32.2673 203.18 32.2673C203.231 32.2673 203.282 32.2673 203.282 32.4025C203.282 32.5376 203.18 32.6897 202.992 32.8924L202.701 33.0782C202.599 33.0782 202.496 33.0782 202.411 33.0782H202.206C201.659 33.1808 201.175 33.4899 200.855 33.9398C200.492 34.3925 200.229 34.9166 200.086 35.4772C199.708 36.6485 199.417 37.8455 199.215 39.0587C198.582 41.9813 198.241 43.7552 198.138 44.3296V44.5661C198.138 44.8026 198.138 44.9547 198.343 44.9547C198.548 44.9547 198.668 44.8026 198.822 44.6168C199.032 44.3415 199.194 44.0331 199.3 43.7045C199.403 43.5693 199.454 43.5187 199.505 43.5187C199.557 43.5187 199.505 43.5187 199.505 43.7045V43.941C199.383 44.6892 198.98 45.3644 198.377 45.8331C198.149 46.0014 197.876 46.1011 197.591 46.1203C197.249 46.1203 197.061 45.8331 197.061 45.2587C197.077 45.0144 197.112 44.7716 197.164 44.5323L197.403 43.147C196.997 43.8664 196.491 44.526 195.899 45.1067C195.719 45.3783 195.483 45.609 195.206 45.7838C194.929 45.9585 194.618 46.0732 194.293 46.1203C193.763 46.1203 193.473 45.5966 193.473 44.583L193.421 44.5323ZM197.779 40.6636L198.036 39.65C197.74 39.4306 197.38 39.3121 197.01 39.3121C196.757 39.3256 196.512 39.4045 196.299 39.5408C196.086 39.6772 195.913 39.8662 195.797 40.0892C195.382 40.6692 195.07 41.3148 194.874 41.9982C194.692 42.6537 194.595 43.3291 194.583 44.0086C194.558 44.2059 194.594 44.4062 194.686 44.583C194.686 44.735 194.823 44.7688 194.977 44.7688C195.18 44.7302 195.374 44.6521 195.547 44.539C195.72 44.4259 195.869 44.2801 195.985 44.11C196.406 43.5779 196.784 43.0129 197.113 42.4206C197.394 41.882 197.617 41.3158 197.779 40.7312V40.6636Z" fill="#0369B2"/>
</g>
<defs>
<clipPath id="clip0_18_62">
<rect width="204" height="57" fill="white"/>
</clipPath>
</defs>
</svg>
